<?xml version="1.0" encoding="UTF-8"?>
<svg width="20px" height="20px" viewBox="0 0 20 20" version="1.1" xmlns="http://www.w3.org/2000/svg" xmlns:xlink="http://www.w3.org/1999/xlink">
    <title>828F4B9C-ECD7-402F-8FAA-63F88FDE03CD@1.5x</title>
    <g id="Page-1" stroke="none" stroke-width="1" fill="none" fill-rule="evenodd">
        <g id="Style-Guide" transform="translate(-474.000000, -493.000000)">
            <g id="Delete-Copy-5" transform="translate(474.000000, 493.000000)">
                <g id="Oval-2" fill="#E7584D">
                    <circle id="Oval" cx="10" cy="10" r="10"></circle>
                </g>
                <path d="M13.4746757,5.62604437 C13.7263427,5.43931197 14.083483,5.46006002 14.3117115,5.6882885 C14.5627628,5.93933983 14.5627628,6.34637446 14.3117115,6.59742579 L14.3117115,6.59742579 L10.909,10 L14.3117115,13.4025742 C14.5627628,13.6536255 14.5627628,14.0606602 14.3117115,14.3117115 C14.083483,14.53994 13.7263427,14.560688 13.4746757,14.3739556 L13.4025742,14.3117115 L10,10.909 L6.59742579,14.3117115 L6.52532427,14.3739556 C6.27365728,14.560688 5.91651698,14.53994 5.6882885,14.3117115 C5.43723717,14.0606602 5.43723717,13.6536255 5.6882885,13.4025742 L5.6882885,13.4025742 L9.091,10 L5.6882885,6.59742579 C5.43723717,6.34637446 5.43723717,5.93933983 5.6882885,5.6882885 C5.91651698,5.46006002 6.27365728,5.43931197 6.52532427,5.62604437 L6.59742579,5.6882885 L10,9.091 L13.4025742,5.6882885 Z" id="Combined-Shape" fill="#FFFFFF" fill-rule="nonzero"></path>
            </g>
        </g>
    </g>
</svg>