<svg width="103" height="103" viewBox="0 0 103 103" fill="none" xmlns="http://www.w3.org/2000/svg">
<circle cx="51.5" cy="51.5" r="49.5" fill="white" stroke="black" stroke-width="4"/>
<path d="M34.8787 81.0034C33.2154 81.0034 31.6514 80.3561 30.4756 79.1796L25.1573 73.8616C22.7298 71.4336 22.7298 67.4829 25.1573 65.0549L36.5049 53.7074C36.9089 53.3033 37.5631 53.3033 37.9667 53.7074C38.3703 54.1114 38.3707 54.7657 37.9667 55.1693L26.6191 66.5169C24.9976 68.1388 24.9976 70.7777 26.6191 72.3997L31.9376 77.7176C32.7229 78.503 33.7675 78.9356 34.8787 78.9356C35.99 78.9356 37.0341 78.503 37.8199 77.7176L52.6033 62.9338C52.9912 62.5459 53.6778 62.5459 54.0653 62.9338L68.8495 77.7185C70.4719 79.34 73.1109 79.3392 74.7324 77.7185L80.0507 72.3997C81.6723 70.7777 81.6723 68.1388 80.0507 66.5169L65.2669 51.733C64.8628 51.329 64.8628 50.6748 65.2669 50.2711L80.0507 35.4865C80.8361 34.7012 81.2686 33.6565 81.2686 32.5457C81.2686 31.4348 80.8361 30.3902 80.0507 29.6049L74.7324 24.2861C73.11 22.6646 70.4711 22.6654 68.8495 24.2861L54.0657 39.0699C53.6617 39.474 53.0074 39.474 52.6037 39.0699L37.8199 24.2861C37.0341 23.5008 35.9896 23.0682 34.8787 23.0682C33.7671 23.0682 32.7229 23.5008 31.9376 24.2861L26.6187 29.6049C25.8334 30.3906 25.4009 31.4353 25.4009 32.5461C25.4009 33.6569 25.8334 34.7015 26.6187 35.4873L37.8328 46.7009C38.2368 47.1049 38.2368 47.7592 37.8328 48.1628C37.4288 48.5665 36.7744 48.5669 36.3708 48.1628L25.1569 36.9492C22.7289 34.5212 22.7289 30.5705 25.1569 28.1425L30.4756 22.8238C31.6518 21.6472 33.2154 21 34.8787 21C36.5421 21 38.1061 21.6472 39.2819 22.8238L53.3345 36.8764L67.3872 22.8238C69.8151 20.3966 73.7658 20.3958 76.1938 22.8238L81.5123 28.1425C82.6884 29.3183 83.3359 30.8819 83.3359 32.5453C83.3359 34.2086 82.6884 35.7726 81.5123 36.948L67.4596 51.0015L81.5123 65.0541C83.9399 67.4821 83.9399 71.4328 81.5123 73.8608L76.1938 79.1796C73.7654 81.6076 69.8147 81.6076 67.3872 79.1796L53.3341 65.1261L39.2819 79.1787C38.1057 80.3561 36.5421 81.0034 34.8787 81.0034Z" fill="black"/>
</svg>
