<svg width="103" height="103" viewBox="0 0 103 103" fill="none" xmlns="http://www.w3.org/2000/svg">
<circle cx="51.5" cy="51.5" r="49.5" fill="white" stroke="#FF0000" stroke-width="4"/>
<path d="M51.3361 67.3363C49.1197 67.3363 47.3164 65.533 47.3164 63.3162C47.3164 61.0998 49.1197 59.2969 51.3361 59.2969C53.5525 59.2969 55.3558 61.0998 55.3558 63.3162C55.3558 65.533 53.5529 67.3363 51.3361 67.3363ZM51.3361 61.1445C50.1384 61.1445 49.164 62.1186 49.164 63.3162C49.164 64.5142 50.1384 65.4886 51.3361 65.4886C52.5337 65.4886 53.5081 64.5142 53.5081 63.3162C53.5081 62.1186 52.5341 61.1445 51.3361 61.1445Z" fill="#FF0000"/>
<path d="M51.3361 57.4298C50.8805 57.4298 50.4924 57.0972 50.4229 56.6464C50.1051 54.5819 47.3164 36.4263 47.3164 34.6951C47.3164 32.4787 49.1197 30.6758 51.3361 30.6758C53.5525 30.6758 55.3558 32.4787 55.3558 34.6951C55.3558 36.4263 52.567 54.5819 52.2493 56.6464C52.1802 57.0972 51.7921 57.4298 51.3361 57.4298ZM51.3361 32.5238C50.1384 32.5238 49.164 33.4978 49.164 34.6955C49.164 35.6245 50.2641 43.2378 51.3361 50.3656C52.4081 43.2378 53.5081 35.6245 53.5081 34.6955C53.5081 33.4978 52.5341 32.5238 51.3361 32.5238Z" fill="#FF0000"/>
<path d="M75.1264 73.5166H27.5449C24.9257 73.5166 22.9428 72.5798 21.9606 70.8789C20.9787 69.178 21.159 66.9919 22.4686 64.7237L33.5463 45.5372C33.8013 45.0949 34.367 44.9441 34.8082 45.1991C35.2498 45.454 35.4014 46.0191 35.1464 46.461L24.0687 65.6475C23.1032 67.32 22.9225 68.8502 23.5606 69.9551C24.1992 71.0603 25.6142 71.6689 27.5449 71.6689H75.1264C77.0576 71.6689 78.4726 71.0603 79.1107 69.9551C79.7489 68.8498 79.5682 67.32 78.603 65.6475L54.8123 24.441C53.8467 22.7689 52.612 21.8476 51.3357 21.8476C50.0593 21.8476 48.8247 22.7685 47.8595 24.441L38.849 40.0483C38.5941 40.4906 38.0279 40.6413 37.5871 40.3864C37.1455 40.1314 36.994 39.5664 37.249 39.1244L46.2596 23.5171C47.5688 21.2494 49.3717 20 51.3357 20C53.2997 20 55.1026 21.249 56.4122 23.5171L80.2034 64.7241C81.513 66.9926 81.693 69.1787 80.7112 70.8793C79.7286 72.5802 77.7456 73.5166 75.1264 73.5166Z" fill="#FF0000"/>
</svg>
