<svg width="103" height="103" viewBox="0 0 103 103" fill="none" xmlns="http://www.w3.org/2000/svg">
<circle cx="51.5" cy="51.5" r="49.5" fill="white" stroke="#1BC000" stroke-width="4"/>
<path d="M40.1912 75.2004C43.0067 75.2004 46.3691 74.936 50.2964 74.4086C50.551 74.3745 50.7626 74.3461 50.9258 74.3255C51.971 74.1941 52.9348 73.5203 53.9553 72.8067C55.9551 71.4082 58.0249 69.962 61.2327 71.6769C61.3686 71.7492 61.5203 71.7874 61.6741 71.7874H75.4251C75.7441 71.7874 76.0406 71.6253 76.2128 71.3572C76.3812 71.0948 80.3359 64.8641 80.3359 58.5477C80.3359 52.2088 76.3595 46.5022 76.1899 46.2626C76.0147 46.0141 75.7299 45.8662 75.4255 45.8662H65.1751C64.6581 45.8662 64.2392 46.2851 64.2392 46.8021C64.2392 47.319 64.6581 47.7379 65.1751 47.7379H74.9214C75.7805 49.0909 78.4642 53.7066 78.4642 58.5477C78.4642 63.4266 75.7588 68.4429 74.8978 69.9156H61.9032C57.7935 67.8376 54.9617 69.8191 52.8825 71.2727C52.0578 71.8499 51.2784 72.3946 50.6926 72.468C50.5256 72.4889 50.3084 72.5181 50.0471 72.5533C36.7869 74.3341 32.5919 72.7506 31.4078 71.1079C29.7629 68.8259 28.9697 66.9343 27.6561 63.7998C27.2125 62.7419 26.7102 61.5433 26.1007 60.1559C24.184 55.7925 20.6165 47.6702 23.0277 44.6016C26.8479 39.7403 41.2304 42.4356 46.4504 43.8844C46.794 43.9798 47.161 43.8716 47.3983 43.6062C47.636 43.3408 47.7018 42.9635 47.5689 42.6333C47.5292 42.5348 43.6371 32.7426 45.9996 28.2956C47.7542 24.9927 51.0284 24.8071 52.4385 24.8958C52.6972 27.1572 53.5646 33.9745 55.0747 38.6004C56.0641 41.6304 57.6876 43.9327 58.8755 45.3301C59.2109 45.7236 59.8008 45.7718 60.1946 45.4372C60.5885 45.1025 60.6364 44.5118 60.3018 44.118C59.2225 42.8485 57.7487 40.76 56.854 38.0194C55.1207 32.7119 54.2272 24.0456 54.2185 23.9588C54.177 23.5489 53.8723 23.2146 53.4684 23.1348C51.3241 22.7126 46.6585 23.0641 44.3461 27.4167C42.2157 31.4271 44.1384 38.4271 45.2191 41.6424C40.229 40.4643 26.0449 37.73 21.5553 43.4445C18.6908 47.0899 21.3831 54.0705 24.3865 60.9076C24.9892 62.2804 25.489 63.4719 25.9296 64.5227C27.2481 67.668 28.1194 69.7461 29.889 72.2018C31.3329 74.205 34.7309 75.2 40.1912 75.2004Z" fill="#1BC000"/>
<path d="M63.1712 71.7873C63.6866 71.7873 64.1052 71.3706 64.107 70.8547L64.1699 54.1834C64.1718 53.6664 63.7543 53.246 63.2377 53.2441H63.2351C62.7185 53.2441 62.3 53.6608 62.2982 54.1766L62.2353 70.848C62.2334 71.3646 62.6507 71.7854 63.1673 71.7873H63.1712Z" fill="#1BC000"/>
<path d="M70.2741 67.2078C72.3727 67.2078 74.0801 65.5003 74.0801 63.4017C74.0801 61.3031 72.3727 59.5957 70.2741 59.5957C68.1754 59.5957 66.468 61.3031 66.468 63.4017C66.468 65.5003 68.1751 67.2078 70.2741 67.2078ZM70.2741 61.4675C71.3406 61.4675 72.2083 62.3352 72.2083 63.4017C72.2083 64.4683 71.3406 65.336 70.2741 65.336C69.2075 65.336 68.3398 64.4683 68.3398 63.4017C68.3398 62.3352 69.2075 61.4675 70.2741 61.4675Z" fill="#1BC000"/>
</svg>
