<svg width="103" height="103" viewBox="0 0 103 103" fill="none" xmlns="http://www.w3.org/2000/svg">
<circle cx="51.5" cy="51.5" r="49.5" fill="white" stroke="#0027F5" stroke-width="4"/>
<path d="M61.9174 65.6153C61.5893 65.6153 61.2833 65.4157 61.1594 65.0961L59.141 59.8851C58.9787 59.4663 59.1868 58.9954 59.6053 58.8335C60.0235 58.6712 60.4947 58.8796 60.657 59.2978L62.409 63.8208L66.5401 62.6644L65.6842 57.8518C65.6228 57.5054 65.7912 57.1585 66.1014 56.9924C67.3231 56.3397 68.4514 55.5203 69.4553 54.5571C69.7118 54.311 70.0985 54.2602 70.4097 54.4309L74.7231 56.8008L77.1451 53.2606L73.3151 50.0579C73.0468 49.8336 72.9519 49.4629 73.0797 49.1374C73.318 48.5303 73.5066 47.9502 73.6566 47.3639L73.7482 47.003C73.8988 46.4157 74.0126 45.817 74.0965 45.1706C74.1414 44.8243 74.4025 44.5449 74.7453 44.4773L79.6424 43.5105L79.2223 39.2384L74.302 39.2445C74.3017 39.2445 74.3014 39.2445 74.3011 39.2445C73.9463 39.2445 73.6322 39.0143 73.5258 38.6758C73.108 37.3504 72.5123 36.089 71.7549 34.9272C71.5627 34.6325 71.5819 34.2476 71.8027 33.9735L74.8688 30.1646L71.8021 27.1636L68.0892 30.287C67.818 30.5146 67.4311 30.5409 67.1319 30.352C65.9545 29.6086 64.6706 29.0281 63.3156 28.6265C62.9765 28.5257 62.7411 28.2175 62.7336 27.8637L62.6334 23.0065L58.3554 22.6804L57.5385 27.3496C57.4771 27.7027 57.1913 27.9736 56.8352 28.0168C55.4008 28.1898 54.0022 28.5655 52.6781 29.1326C52.3543 29.2717 51.9784 29.1859 51.7462 28.9208L48.6603 25.3953L45.1734 27.8943L47.5017 31.9151C47.6795 32.222 47.6376 32.6093 47.3979 32.8711C46.4042 33.9575 45.5812 35.1675 44.951 36.4672C44.7952 36.7888 44.4482 36.97 44.0948 36.9163L39.489 36.2019L38.4253 40.3569L42.8055 41.9448C43.2275 42.098 43.4458 42.564 43.2926 42.9861C43.1394 43.4088 42.6725 43.6254 42.2514 43.4735L37.1776 41.6343C36.7842 41.4919 36.5634 41.0736 36.6671 40.6681L38.0966 35.0836C38.2003 34.6785 38.5947 34.4202 39.0087 34.4817L43.7611 35.2192C44.326 34.1556 45.0095 33.1517 45.8007 32.2233L43.396 28.0705C43.1863 27.7083 43.2857 27.2462 43.6259 27.0023L48.3117 23.6439C48.6521 23.4003 49.1217 23.4543 49.3971 23.7694L52.5874 27.414C53.7005 26.9831 54.8568 26.6726 56.0382 26.4862L56.8801 21.6737C56.9519 21.2614 57.3223 20.9677 57.7425 21.0028L63.4919 21.4412C63.9094 21.4733 64.2343 21.8164 64.243 22.2349L64.3461 27.2465C65.4442 27.614 66.4972 28.0897 67.488 28.6666L71.3192 25.4435C71.6395 25.1742 72.112 25.1918 72.4111 25.4844L76.5324 29.5172C76.8316 29.8099 76.8595 30.2823 76.5971 30.6079L73.4315 34.5405C74.0181 35.5135 74.5053 36.5443 74.8854 37.6167L79.9578 37.6103C79.9582 37.6103 79.9585 37.6103 79.9588 37.6103C80.377 37.6103 80.7269 37.9276 80.7678 38.3435L81.3323 44.0842C81.3733 44.5007 81.0914 44.8802 80.681 44.9615L75.6242 45.9594C75.5436 46.4566 75.4444 46.933 75.3237 47.4032L75.232 47.7635C75.1114 48.2353 74.9686 48.7023 74.7996 49.1781L78.754 52.4848C79.0753 52.7534 79.14 53.222 78.9036 53.5676L75.6486 58.3252C75.4122 58.6702 74.9527 58.7798 74.5862 58.5786L70.1401 56.1358C69.2908 56.8948 68.3679 57.5647 67.3862 58.1347L68.2697 63.1034C68.3428 63.5154 68.0915 63.9157 67.6883 64.0285L62.1362 65.5826C62.0637 65.606 61.9899 65.6153 61.9174 65.6153Z" fill="#0027F5"/>
<path d="M58.7887 50.9233C58.1585 50.9233 57.5244 50.844 56.8985 50.6833C56.4637 50.5715 56.2016 50.1286 56.3131 49.6938C56.4247 49.2584 56.8686 48.997 57.3027 49.1082C58.8375 49.502 60.4341 49.274 61.7985 48.4659C63.1633 47.6582 64.1317 46.3669 64.5255 44.8305C65.3368 41.6603 63.4183 38.42 60.2481 37.6074C58.7117 37.2136 57.115 37.4418 55.7503 38.2496C54.3858 39.0573 53.4178 40.3482 53.0247 41.884C52.7863 42.8105 52.7729 43.7499 52.985 44.6783C53.0851 45.116 52.8113 45.552 52.3736 45.6518C51.935 45.752 51.4999 45.4782 51.4001 45.0402C51.1334 43.8735 51.1503 42.6424 51.4498 41.4799C51.9506 39.5239 53.1837 37.8798 54.9217 36.851C56.6601 35.8215 58.6951 35.5318 60.6513 36.0325C64.6894 37.0679 67.1337 41.1956 66.1 45.2343C65.5982 47.1916 64.3645 48.836 62.6264 49.8652C61.4454 50.5649 60.1265 50.9233 58.7887 50.9233Z" fill="#0027F5"/>
<path d="M48.2047 77.4456H30.8341C30.5437 77.4456 30.2751 77.2905 30.1301 77.0391L21.445 61.9951C21.2996 61.7438 21.2996 61.4335 21.445 61.1822L30.1301 46.1389C30.2754 45.8875 30.5437 45.7324 30.8341 45.7324H48.2047C48.4951 45.7324 48.7633 45.8875 48.9087 46.1389L57.5941 61.1822C57.7395 61.4335 57.7395 61.7438 57.5941 61.9951L48.9087 77.0391C48.7633 77.2905 48.4951 77.4456 48.2047 77.4456ZM31.3033 75.8197H47.7351L55.9513 61.5887L47.7351 47.3583H31.3033L23.0874 61.5887L31.3033 75.8197Z" fill="#0027F5"/>
</svg>
