<svg width="103" height="103" viewBox="0 0 103 103" fill="none" xmlns="http://www.w3.org/2000/svg">
<circle cx="51.5" cy="51.5" r="49.5" fill="white" stroke="#1BC000" stroke-width="4"/>
<path d="M69.2672 79.1583C69.1097 79.1583 68.951 79.1204 68.8066 79.0442L51.336 69.8223L33.8653 79.0442C33.533 79.2195 33.1291 79.1907 32.8244 78.97C32.5201 78.749 32.3682 78.374 32.4326 78.0034L35.8053 58.5387L21.6353 44.7732C21.3653 44.5107 21.2681 44.1184 21.3842 43.7608C21.5006 43.4028 21.81 43.1422 22.1822 43.0889L37.1099 40.9457C37.6542 40.8707 38.1498 41.2429 38.2268 41.7821C38.3041 42.3216 37.9297 42.8217 37.3905 42.8991L24.4503 44.757L37.554 57.4864C37.7876 57.7134 37.8941 58.0413 37.8384 58.3626L34.7199 76.3622L50.8754 67.8345C51.1635 67.6821 51.5085 67.6821 51.7967 67.8345L67.952 76.3622L64.8335 58.3626C64.7774 58.0417 64.8844 57.7134 65.1181 57.4864L78.222 44.7574L60.1391 42.1606C59.8167 42.1144 59.5375 41.9115 59.3935 41.619L51.3364 25.2236L45.3917 37.3199C45.1509 37.8089 44.5588 38.0106 44.0705 37.7702C43.5815 37.5299 43.3797 36.9386 43.6197 36.4495L50.4503 22.5514C50.6164 22.2139 50.9599 22 51.336 22C51.7122 22 52.0555 22.2139 52.2216 22.5514L60.9349 40.2814L80.4896 43.0893C80.8618 43.1426 81.1717 43.4031 81.2877 43.7611C81.4038 44.1187 81.3066 44.5115 81.0366 44.774L66.8662 58.5391L70.2389 78.0038C70.3033 78.3744 70.151 78.7494 69.8471 78.9705C69.6758 79.0948 69.472 79.1583 69.2672 79.1583Z" fill="#1BC000"/>
</svg>
