<svg width="103" height="103" viewBox="0 0 103 103" fill="none" xmlns="http://www.w3.org/2000/svg">
<circle cx="51.5" cy="51.5" r="49.5" fill="white" stroke="#FFF500" stroke-width="4"/>
<path d="M51.3361 81.0001C51.0539 81.0001 50.7878 80.8674 50.6178 80.6416L45.291 73.5603L37.1365 77.0298C36.8765 77.1409 36.5795 77.1225 36.3351 76.9813C36.0902 76.84 35.9263 76.5919 35.8925 76.3115L34.8211 67.5156L26.0249 66.4434C25.7448 66.4093 25.4963 66.2454 25.3554 66.0009C25.2141 65.7564 25.1962 65.4594 25.3066 65.1995L28.7753 57.0454L21.6944 51.7186C21.4686 51.5485 21.3359 51.2828 21.3359 51.0002C21.3359 50.7176 21.4686 50.4519 21.6944 50.2819L28.7753 44.9551L25.3066 36.801C25.1958 36.541 25.2141 36.2444 25.3554 35.9996C25.497 35.7551 25.7448 35.5912 26.0253 35.557L31.6148 34.8764C32.1117 34.8153 32.5558 35.1672 32.6155 35.6598C32.6755 36.1527 32.3246 36.6007 31.8316 36.6608L27.4285 37.1968L30.7049 44.8986C30.8664 45.279 30.748 45.7205 30.4179 45.969L23.7292 51.0002L30.4179 56.0315C30.748 56.2799 30.8664 56.7214 30.7049 57.1018L27.4285 64.8036L35.7368 65.8164C36.147 65.8664 36.4703 66.1896 36.5203 66.5998L37.5323 74.9082L45.2341 71.6311C45.6138 71.4693 46.0557 71.5876 46.3045 71.9176L51.3361 78.6063L56.3674 71.9176C56.6162 71.5876 57.0577 71.4686 57.4378 71.6311L65.1396 74.9082L66.152 66.5998C66.2019 66.1896 66.5252 65.8661 66.9354 65.8164L75.2434 64.8036L71.9666 57.1018C71.8051 56.7214 71.9236 56.2799 72.2536 56.0315L78.9423 51.0002L72.2536 45.969C71.9236 45.7205 71.8051 45.279 71.9666 44.8986L75.2434 37.1968L66.9354 36.1847C66.5252 36.1347 66.2019 35.8115 66.152 35.4013L65.1396 27.093L57.4378 30.3693C57.0577 30.5318 56.6166 30.4128 56.3674 30.0828L51.3361 23.3941L46.3045 30.0828C46.056 30.4128 45.6138 30.5318 45.2341 30.3693L37.5323 27.093L37.0009 31.4501C36.9409 31.9426 36.4927 32.2939 36.0001 32.2335C35.5076 32.1735 35.1566 31.7255 35.2166 31.2326L35.8921 25.6893C35.9263 25.4089 36.0902 25.1608 36.3347 25.0195C36.5788 24.8786 36.8758 24.8599 37.1361 24.971L45.2906 28.4397L50.6174 21.3585C50.7875 21.1327 51.0535 21 51.3358 21C51.6184 21 51.8841 21.1327 52.0541 21.3585L57.3805 28.4397L65.5347 24.971C65.795 24.8603 66.092 24.8782 66.3361 25.0195C66.581 25.1608 66.7449 25.4089 66.7787 25.6893L67.8508 34.4852L76.6466 35.5566C76.9267 35.5908 77.1752 35.7547 77.3162 35.9992C77.4575 36.2437 77.4753 36.5403 77.365 36.8006L73.8959 44.9547L80.9775 50.2815C81.2032 50.4516 81.3359 50.7173 81.3359 50.9999C81.3359 51.2825 81.2032 51.5481 80.9775 51.7182L73.8959 57.045L77.365 65.1991C77.4757 65.4591 77.4575 65.7557 77.3162 66.0005C77.1749 66.2453 76.9267 66.4093 76.6466 66.4431L67.8508 67.5152L66.7787 76.3111C66.7445 76.5915 66.5806 76.8396 66.3361 76.9809C66.0916 77.1222 65.7943 77.1402 65.5347 77.0294L57.3805 73.56L52.0541 80.6413C51.8848 80.8674 51.6191 81.0001 51.3361 81.0001Z" fill="#FFF500"/>
<path d="M51.3367 69.5544C49.1803 69.5544 47.4258 67.7998 47.4258 65.643C47.4258 63.4866 49.1803 61.7324 51.3367 61.7324C53.4932 61.7324 55.2477 63.4866 55.2477 65.643C55.2477 67.7998 53.4932 69.5544 51.3367 69.5544ZM51.3367 63.5301C50.1715 63.5301 49.2234 64.4778 49.2234 65.643C49.2234 66.8086 50.1715 67.7567 51.3367 67.7567C52.502 67.7567 53.45 66.8086 53.45 65.643C53.45 64.4782 52.5023 63.5301 51.3367 63.5301Z" fill="#FFF500"/>
<path d="M51.3367 59.9151C50.8934 59.9151 50.516 59.5915 50.4484 59.1529C50.1392 57.1442 47.4258 39.4798 47.4258 37.7954C47.4258 35.6389 49.1803 33.8848 51.3367 33.8848C53.4932 33.8848 55.2477 35.6389 55.2477 37.7954C55.2477 39.4798 52.5344 57.1442 52.2252 59.1529C52.158 59.5915 51.7804 59.9151 51.3367 59.9151ZM51.3367 35.6824C50.1715 35.6824 49.2234 36.6301 49.2234 37.7954C49.2234 38.6992 50.2937 46.1066 51.3367 53.0416C52.3797 46.1066 53.45 38.6992 53.45 37.7954C53.45 36.6305 52.5023 35.6824 51.3367 35.6824Z" fill="#FFF500"/>
</svg>
