<svg width="103" height="103" viewBox="0 0 103 103" fill="none" xmlns="http://www.w3.org/2000/svg">
<circle cx="51.5" cy="51.5" r="49.5" fill="white" stroke="#FFE600" stroke-width="4"/>
<path d="M51.3364 81.0001C51.0541 81.0001 50.7881 80.8674 50.618 80.6416L45.2912 73.5603L37.1367 77.0298C36.8768 77.1409 36.5798 77.1225 36.3353 76.9813C36.0905 76.84 35.9265 76.5919 35.8927 76.3115L34.8213 67.5156L26.0252 66.4434C25.7451 66.4093 25.4965 66.2454 25.3556 66.0009C25.2143 65.7564 25.1964 65.4594 25.3068 65.1995L28.7755 57.0454L21.6947 51.7186C21.4689 51.5485 21.3362 51.2828 21.3362 51.0002C21.3362 50.7176 21.4689 50.4519 21.6947 50.2819L28.7755 44.9551L25.3068 36.801C25.1961 36.541 25.2143 36.2444 25.3556 35.9996C25.4973 35.7551 25.7451 35.5912 26.0255 35.557L31.6151 34.8764C32.1119 34.8153 32.556 35.1672 32.6157 35.6598C32.6758 36.1527 32.3248 36.6007 31.8319 36.6608L27.4287 37.1968L30.7052 44.8986C30.8666 45.279 30.7482 45.7205 30.4182 45.969L23.7295 51.0002L30.4182 56.0315C30.7482 56.2799 30.8666 56.7214 30.7052 57.1018L27.4287 64.8036L35.737 65.8164C36.1472 65.8664 36.4705 66.1896 36.5205 66.5998L37.5326 74.9082L45.2344 71.6311C45.614 71.4693 46.0559 71.5876 46.3047 71.9176L51.3364 78.6063L56.3677 71.9176C56.6165 71.5876 57.058 71.4686 57.438 71.6311L65.1398 74.9082L66.1522 66.5998C66.2022 66.1896 66.5255 65.8661 66.9357 65.8164L75.2437 64.8036L71.9668 57.1018C71.8054 56.7214 71.9238 56.2799 72.2538 56.0315L78.9425 51.0002L72.2538 45.969C71.9238 45.7205 71.8054 45.279 71.9668 44.8986L75.2437 37.1968L66.9357 36.1847C66.5255 36.1347 66.2022 35.8115 66.1522 35.4013L65.1398 27.093L57.438 30.3693C57.058 30.5318 56.6168 30.4128 56.3677 30.0828L51.3364 23.3941L46.3047 30.0828C46.0563 30.4128 45.614 30.5318 45.2344 30.3693L37.5326 27.093L37.0012 31.4501C36.9411 31.9426 36.4929 32.2939 36.0004 32.2335C35.5078 32.1735 35.1568 31.7255 35.2169 31.2326L35.8924 25.6893C35.9265 25.4089 36.0905 25.1608 36.335 25.0195C36.5791 24.8786 36.876 24.8599 37.1363 24.971L45.2909 28.4397L50.6176 21.3585C50.7877 21.1327 51.0538 21 51.336 21C51.6186 21 51.8843 21.1327 52.0544 21.3585L57.3808 28.4397L65.535 24.971C65.7953 24.8603 66.0922 24.8782 66.3364 25.0195C66.5812 25.1608 66.7451 25.4089 66.7789 25.6893L67.851 34.4852L76.6469 35.5566C76.9269 35.5908 77.1755 35.7547 77.3164 35.9992C77.4577 36.2437 77.4756 36.5403 77.3652 36.8006L73.8961 44.9547L80.9777 50.2815C81.2035 50.4516 81.3362 50.7173 81.3362 50.9999C81.3362 51.2825 81.2035 51.5481 80.9777 51.7182L73.8961 57.045L77.3652 65.1991C77.4759 65.4591 77.4577 65.7557 77.3164 66.0005C77.1751 66.2453 76.9269 66.4093 76.6469 66.4431L67.851 67.5152L66.7789 76.3111C66.7448 76.5915 66.5808 76.8396 66.3364 76.9809C66.0919 77.1222 65.7945 77.1402 65.535 77.0294L57.3808 73.56L52.0544 80.6413C51.885 80.8674 51.6193 81.0001 51.3364 81.0001Z" fill="#FFE600"/>
<path d="M51.3365 69.5541C49.18 69.5541 47.4255 67.7996 47.4255 65.6428C47.4255 63.4863 49.18 61.7322 51.3365 61.7322C53.4929 61.7322 55.2474 63.4863 55.2474 65.6428C55.2474 67.7996 53.4929 69.5541 51.3365 69.5541ZM51.3365 63.5298C50.1712 63.5298 49.2232 64.4776 49.2232 65.6428C49.2232 66.8084 50.1712 67.7565 51.3365 67.7565C52.5017 67.7565 53.4498 66.8084 53.4498 65.6428C53.4498 64.4779 52.5021 63.5298 51.3365 63.5298Z" fill="#FFE600"/>
<path d="M51.3365 59.9158C50.8932 59.9158 50.5158 59.5922 50.4482 59.1536C50.139 57.1449 47.4255 39.4805 47.4255 37.7961C47.4255 35.6396 49.18 33.8855 51.3365 33.8855C53.4929 33.8855 55.2474 35.6396 55.2474 37.7961C55.2474 39.4805 52.5341 57.1449 52.2249 59.1536C52.1577 59.5922 51.7801 59.9158 51.3365 59.9158ZM51.3365 35.6831C50.1712 35.6831 49.2232 36.6309 49.2232 37.7961C49.2232 38.7 50.2935 46.1074 51.3365 53.0423C52.3795 46.1074 53.4498 38.7 53.4498 37.7961C53.4498 36.6312 52.5021 35.6831 51.3365 35.6831Z" fill="#FFE600"/>
</svg>
