<svg width="104" height="103" viewBox="0 0 104 103" fill="none" xmlns="http://www.w3.org/2000/svg">
<circle cx="52.1638" cy="51.5" r="49.5" fill="white" stroke="#FFCA28" stroke-width="4"/>
<path d="M52.0002 81.0001C51.7179 81.0001 51.4519 80.8674 51.2818 80.6416L45.9551 73.5603L37.8005 77.0298C37.5406 77.1409 37.2436 77.1225 36.9991 76.9813C36.7543 76.84 36.5904 76.5919 36.5566 76.3115L35.4852 67.5156L26.689 66.4434C26.4089 66.4093 26.1604 66.2454 26.0194 66.0009C25.8781 65.7564 25.8602 65.4594 25.9706 65.1995L29.4393 57.0454L22.3585 51.7186C22.1327 51.5485 22 51.2828 22 51.0002C22 50.7176 22.1327 50.4519 22.3585 50.2819L29.4393 44.9551L25.9706 36.801C25.8599 36.541 25.8781 36.2444 26.0194 35.9996C26.1611 35.7551 26.4089 35.5912 26.6893 35.557L32.2789 34.8764C32.7758 34.8153 33.2199 35.1672 33.2795 35.6598C33.3396 36.1527 32.9886 36.6007 32.4957 36.6608L28.0925 37.1968L31.369 44.8986C31.5304 45.279 31.412 45.7205 31.082 45.969L24.3933 51.0002L31.082 56.0315C31.412 56.2799 31.5304 56.7214 31.369 57.1018L28.0925 64.8036L36.4008 65.8164C36.8111 65.8664 37.1344 66.1896 37.1843 66.5998L38.1964 74.9082L45.8982 71.6311C46.2778 71.4693 46.7197 71.5876 46.9685 71.9176L52.0002 78.6063L57.0315 71.9176C57.2803 71.5876 57.7218 71.4686 58.1018 71.6311L65.8036 74.9082L66.816 66.5998C66.866 66.1896 67.1893 65.8661 67.5995 65.8164L75.9075 64.8036L72.6306 57.1018C72.4692 56.7214 72.5876 56.2799 72.9177 56.0315L79.6064 51.0002L72.9177 45.969C72.5876 45.7205 72.4692 45.279 72.6306 44.8986L75.9075 37.1968L67.5995 36.1847C67.1893 36.1347 66.866 35.8115 66.816 35.4013L65.8036 27.093L58.1018 30.3693C57.7218 30.5318 57.2806 30.4128 57.0315 30.0828L52.0002 23.3941L46.9685 30.0828C46.7201 30.4128 46.2778 30.5318 45.8982 30.3693L38.1964 27.093L37.665 31.4501C37.6049 31.9426 37.1567 32.2939 36.6642 32.2335C36.1716 32.1735 35.8206 31.7255 35.8807 31.2326L36.5562 25.6893C36.5904 25.4089 36.7543 25.1608 36.9988 25.0195C37.2429 24.8786 37.5399 24.8599 37.8002 24.971L45.9547 28.4397L51.2815 21.3585C51.4515 21.1327 51.7176 21 51.9998 21C52.2824 21 52.5481 21.1327 52.7182 21.3585L58.0446 28.4397L66.1988 24.971C66.4591 24.8603 66.7561 24.8782 67.0002 25.0195C67.245 25.1608 67.4089 25.4089 67.4427 25.6893L68.5148 34.4852L77.3107 35.5566C77.5907 35.5908 77.8393 35.7547 77.9802 35.9992C78.1215 36.2437 78.1394 36.5403 78.029 36.8006L74.56 44.9547L81.6415 50.2815C81.8673 50.4516 82 50.7173 82 50.9999C82 51.2825 81.8673 51.5481 81.6415 51.7182L74.56 57.045L78.029 65.1991C78.1398 65.4591 78.1215 65.7557 77.9802 66.0005C77.8389 66.2453 77.5907 66.4093 77.3107 66.4431L68.5148 67.5152L67.4427 76.3111C67.4086 76.5915 67.2447 76.8396 67.0002 76.9809C66.7557 77.1222 66.4584 77.1402 66.1988 77.0294L58.0446 73.56L52.7182 80.6413C52.5488 80.8674 52.2831 81.0001 52.0002 81.0001Z" fill="#FFCA28"/>
<path d="M52.0003 69.5542C49.8438 69.5542 48.0894 67.7997 48.0894 65.6429C48.0894 63.4864 49.8438 61.7323 52.0003 61.7323C54.1568 61.7323 55.9112 63.4864 55.9112 65.6429C55.9112 67.7997 54.1568 69.5542 52.0003 69.5542ZM52.0003 63.5299C50.8351 63.5299 49.887 64.4777 49.887 65.6429C49.887 66.8085 50.8351 67.7566 52.0003 67.7566C53.1655 67.7566 54.1136 66.8085 54.1136 65.6429C54.1136 64.478 53.1659 63.5299 52.0003 63.5299Z" fill="#FFCA28"/>
<path d="M52.0003 59.9159C51.557 59.9159 51.1796 59.5923 51.112 59.1537C50.8028 57.145 48.0894 39.4806 48.0894 37.7962C48.0894 35.6397 49.8438 33.8856 52.0003 33.8856C54.1568 33.8856 55.9112 35.6397 55.9112 37.7962C55.9112 39.4806 53.198 57.145 52.8888 59.1537C52.8215 59.5923 52.444 59.9159 52.0003 59.9159ZM52.0003 35.6832C50.8351 35.6832 49.887 36.6309 49.887 37.7962C49.887 38.7 50.9573 46.1074 52.0003 53.0424C53.0433 46.1074 54.1136 38.7 54.1136 37.7962C54.1136 36.6313 53.1659 35.6832 52.0003 35.6832Z" fill="#FFCA28"/>
</svg>
