<?xml version="1.0" encoding="UTF-8"?>
<svg width="193px" height="92px" viewBox="0 0 193 92" version="1.1" xmlns="http://www.w3.org/2000/svg" xmlns:xlink="http://www.w3.org/1999/xlink">
    <title>B6BF902E-7B56-4BF4-B3AC-171E879B9BC9@1.5x</title>
    <defs>
        <filter x="-16.5%" y="-47.2%" width="132.9%" height="194.4%" filterUnits="objectBoundingBox" id="filter-1">
            <feOffset dx="0" dy="3" in="SourceAlpha" result="shadowOffsetOuter1"></feOffset>
            <feGaussianBlur stdDeviation="5" in="shadowOffsetOuter1" result="shadowBlurOuter1"></feGaussianBlur>
            <feColorMatrix values="0 0 0 0 0   0 0 0 0 0   0 0 0 0 0  0 0 0 0.078642305 0" type="matrix" in="shadowBlurOuter1" result="shadowMatrixOuter1"></feColorMatrix>
            <feMerge>
                <feMergeNode in="shadowMatrixOuter1"></feMergeNode>
                <feMergeNode in="SourceGraphic"></feMergeNode>
            </feMerge>
        </filter>
    </defs>
    <g id="Page-1" stroke="none" stroke-width="1" fill="none" fill-rule="evenodd">
        <g id="2.1-A/-Light-Mode-/-מסך-הסבר-v3" transform="translate(-84.000000, -298.000000)">
            <g id="Group-19" filter="url(#filter-1)" transform="translate(103.000000, 317.000000)">
                <rect id="Rectangle-Copy-10" fill="#FFFFFF" x="0" y="0" width="155" height="54" rx="10"></rect>
                <g id="Group-17" transform="translate(17.000000, 8.000000)">
                    <circle id="Oval-Copy-6" stroke="#E4E4E4" fill="#FFFFFF" cx="107" cy="15" r="14.5"></circle>
                    <circle id="Oval-Copy" stroke="#E4E4E4" fill="#FFFFFF" cx="61" cy="15" r="14.5"></circle>
                    <circle id="Oval-Copy-5" stroke="#E4E4E4" fill="#FFFFFF" cx="15" cy="15" r="14.5"></circle>
                    <g id="Icons/Story/Meshek" transform="translate(99.000000, 7.001000)" fill="#DBDBDB" fill-rule="nonzero">
                        <path d="M7.717,0 L7.717,3.776 L7.54914843,3.79416737 C5.41377578,4.01926671 3.77110813,5.83371755 3.77110813,7.99566386 C3.77110813,10.3291708 5.66975155,12.2278402 8.00322659,12.2278402 C8.92100598,12.2278402 9.79527876,11.9339136 10.5150877,11.4007605 L10.567,11.359 L13.242,14.033 L13.0469247,14.2006426 C11.6330857,15.3571999 9.87060649,15.999 8.00322659,15.999 C3.58794289,15.999 0,12.411008 0,7.99566386 C0,3.82475566 3.21062865,0.365427482 7.32662993,0.0248322788 L7.50357757,0.0121517879 L7.717,0 Z M15.9428074,8.98485191 C15.7575819,10.5180493 15.1302123,11.9479343 14.1430719,13.1187689 L14.023,13.256 L11.349,10.581 L11.459992,10.4367559 C11.7682186,10.0022863 11.9912507,9.50913435 12.1147158,8.98507792 L15.9428074,8.98485191 Z M8.99128059,0.0564463381 C12.7187114,0.510469505 15.6634053,3.54779718 15.9739,7.31694167 L15.9866427,7.4962288 L16,7.729 L12.224,7.729 L12.2046338,7.54127616 C12.0181336,5.75304442 10.705424,4.2927156 8.99125057,3.8850454 L8.99128059,0.0564463381 Z" id="Combined-Shape"></path>
                    </g>
                    <g id="Icons/Story/Meshek" transform="translate(54.000000, 9.000000)" fill="#DBDBDB" fill-rule="nonzero">
                        <path d="M0.625,0.48 C0.970177969,0.48 1.25,0.759822031 1.25,1.105 L1.25,1.105 L1.25,10.7873684 L14.3936842,10.7873684 C14.7285432,10.7873684 15,11.0588252 15,11.3936842 C15,11.7285432 14.7285432,12 14.3936842,12 L14.3936842,12 L0.625,12 C0.279822031,12 0,11.7285432 0,11.3936842 L0,11.3936842 L0,1.105 C-4.22721094e-17,0.759822031 0.279822031,0.48 0.625,0.48 Z M4.875,4.85052632 C5.20291907,4.85052632 5.46875,5.12198314 5.46875,5.45684211 L5.46875,5.45684211 L5.46875,9.70105263 L2.5,9.70105263 L2.5,5.45684211 C2.5,5.12198314 2.76583093,4.85052632 3.09375,4.85052632 L3.09375,4.85052632 Z M9.375,2.42526316 C9.72017797,2.42526316 10,2.69671998 10,3.03157895 L10,3.03157895 L10,9.70105263 L6.875,9.70105263 L6.875,3.03157895 C6.875,2.69671998 7.15482203,2.42526316 7.5,2.42526316 L7.5,2.42526316 Z M13.75,0 C14.095178,0 14.375,0.271456825 14.375,0.606315789 L14.375,0.606315789 L14.375,9.70105263 L11.25,9.70105263 L11.25,0.606315789 C11.25,0.271456825 11.529822,0 11.875,0 L11.875,0 Z" id="Combined-Shape"></path>
                    </g>
                    <g id="Icons/Story/Meshek" transform="translate(8.000000, 10.000000)" fill="#DBDBDB" fill-rule="nonzero">
                        <path d="M0.821305056,0.19399969 L10.3662949,0.227267622 C10.8200803,0.227267622 11.1878738,0.610229247 11.1878738,1.08272918 C11.1878738,1.55522912 10.8200803,1.93819075 10.3662949,1.93819075 L0.821578915,1.90492281 C0.367793494,1.90492281 0,1.52196119 0,1.04946125 C0,0.576961315 0.367519635,0.19399969 0.821305056,0.19399969 Z M0.821305056,4.4812627 L10.3662949,4.51453063 C10.8200803,4.51453063 11.1878738,4.89749226 11.1878738,5.36999219 C11.1878738,5.84249213 10.8200803,6.22545376 10.3662949,6.22545376 L0.821578915,6.19218582 C0.367793494,6.19218582 0,5.8092242 0,5.33672426 C0,4.86422433 0.367519635,4.4812627 0.821305056,4.4812627 Z M0.821305056,8.76852571 L10.3662949,8.80179364 C10.8200803,8.80179364 11.1878738,9.18475527 11.1878738,9.65725521 C11.1878738,10.1297551 10.8200803,10.5127168 10.3662949,10.5127168 L0.821578915,10.4794488 C0.367793494,10.4794488 0,10.0964872 0,9.62398727 C0,9.15148734 0.367519635,8.76852571 0.821305056,8.76852571 Z M13.8966195,8.70223025 C13.2872393,8.70223025 12.793239,9.21660353 12.793239,9.85111512 C12.793239,10.4856267 13.2872393,11 13.8966195,11 C14.5059997,11 15,10.4856267 15,9.85111512 C15,9.21660353 14.5059997,8.70223025 13.8966195,8.70223025 Z M13.8966195,4.35111512 C13.2872393,4.35111512 12.793239,4.8654884 12.793239,5.5 C12.793239,6.1345116 13.2872393,6.64888488 13.8966195,6.64888488 C14.5059997,6.64888488 15,6.1345116 15,5.5 C15,4.8654884 14.5059997,4.35111512 13.8966195,4.35111512 Z M13.8966195,0 C13.2872393,0 12.793239,0.51437328 12.793239,1.14888488 C12.793239,1.78339647 13.2872393,2.29776975 13.8966195,2.29776975 C14.5059997,2.29776975 15,1.78339647 15,1.14888488 C15,0.51437328 14.5059997,0 13.8966195,0 Z" id="Combined-Shape"></path>
                    </g>
                    <rect id="Rectangle-Copy-11" fill="#DBDBDB" x="93" y="35" width="27" height="3" rx="1.5"></rect>
                    <rect id="Rectangle-Copy-12" fill="#DBDBDB" x="48" y="35" width="27" height="3" rx="1.5"></rect>
                    <rect id="Rectangle-Copy-19" fill="#DBDBDB" x="2" y="35" width="27" height="3" rx="1.5"></rect>
                </g>
            </g>
        </g>
    </g>
</svg>