<?xml version="1.0" encoding="UTF-8"?>
<svg width="24px" height="24px" viewBox="0 0 24 24" version="1.1" xmlns="http://www.w3.org/2000/svg" xmlns:xlink="http://www.w3.org/1999/xlink">
    <title>A3E9C8F3-7ABF-4D14-9EE3-AA78D4F6AD82@1.5x</title>
    <g id="Page-1" stroke="none" stroke-width="1" fill="none" fill-rule="evenodd">
        <g id="Style-Guide" transform="translate(-510.000000, -1139.000000)" fill="#0F2558" fill-rule="nonzero">
            <g id="Icon/sun-Copy-2" transform="translate(510.000000, 1139.000000)">
                <path d="M12.5,17.3610496 C12.9045616,17.3610496 13.2330602,17.6892161 13.2330602,18.0941098 L13.2330602,18.0941098 L13.2330602,19.2666076 C13.2330602,19.6718335 12.9048937,20 12.5,20 C12.0951063,20 11.7669398,19.6718335 11.7669398,19.2666076 L11.7669398,19.2666076 L11.7669398,18.0941098 C11.7669398,17.6892161 12.0951063,17.3610496 12.5,17.3610496 Z M9.06255536,15.9377768 C9.32284202,16.1974595 9.34650444,16.6048265 9.13354263,16.8916105 L9.06255536,16.97376 L8.23317095,17.8034765 C7.94718778,18.0894597 7.4828388,18.0894597 7.19652347,17.8034765 C6.93623681,17.5434918 6.9128489,17.1358229 7.12561107,16.8489865 L7.19652347,16.7668291 L8.02590788,15.9377768 C8.31222321,15.6511293 8.77624004,15.6511293 9.06255536,15.9377768 Z M16.97376,15.9377768 L17.8031444,16.7671612 C18.0894597,17.0528122 18.0894597,17.5174934 17.8031444,17.8034765 C17.5168291,18.0894597 17.0528122,18.0894597 16.7664969,17.8034765 L15.9371125,16.9740921 C15.6507972,16.6877768 15.6507972,16.22376 15.9371125,15.9377768 C16.2234278,15.6517936 16.6877768,15.6517936 16.97376,15.9377768 Z M12.5,8.7430248 C14.571302,8.7430248 16.2569752,10.4283658 16.2569752,12.5003322 C16.2569752,14.5722985 14.571302,16.2576395 12.5,16.2576395 C10.4283658,16.2576395 8.7430248,14.5719663 8.7430248,12.5003322 C8.7430248,10.428698 10.4283658,8.7430248 12.5,8.7430248 Z M19.2669398,11.7669398 C19.6718335,11.7669398 20,12.0951063 20,12.5 C20,12.9048937 19.6718335,13.2327281 19.2669398,13.2327281 L18.0941098,13.2327281 C17.6892161,13.2327281 17.3610496,12.9048937 17.3610496,12.5 C17.3610496,12.0951063 17.6892161,11.7669398 18.0941098,11.7669398 L19.2669398,11.7669398 Z M6.90555802,11.7669398 C7.31045173,11.7669398 7.63861825,12.0951063 7.63861825,12.5 C7.63861825,12.9048937 7.31045173,13.2327281 6.90589017,13.2327281 L6.90589017,13.2327281 L5.73306023,13.2327281 C5.32816652,13.2327281 5,12.9048937 5,12.5 C5,12.0951063 5.32816652,11.7669398 5.73306023,11.7669398 L5.73306023,11.7669398 Z M17.8031444,7.19652347 C18.0894597,7.4828388 18.0894597,7.94718778 17.8031444,8.23317095 L16.97376,9.06255536 C16.6877768,9.34887068 16.22376,9.34887068 15.9371125,9.06255536 C15.6511293,8.77624004 15.6511293,8.31222321 15.9371125,8.02590788 L16.7664969,7.19652347 C17.0524801,6.9105403 17.5168291,6.9105403 17.8031444,7.19652347 Z M8.15094615,7.12586835 L8.23317095,7.19685562 L9.06255536,8.02590788 C9.34887068,8.31222321 9.34887068,8.77624004 9.06255536,9.06255536 C8.8022687,9.32314397 8.3951213,9.34683385 8.10813268,9.13362498 L8.02590788,9.06255536 L7.19652347,8.23317095 C6.91020815,7.94718778 6.91020815,7.4828388 7.19652347,7.19685562 C7.45681013,6.93656897 7.86395754,6.91290654 8.15094615,7.12586835 Z M12.5,5 C12.9048937,5 13.2330602,5.32816652 13.2330602,5.73306023 L13.2330602,6.90589017 C13.2330602,7.31045173 12.9045616,7.63861825 12.5,7.63861825 C12.0951063,7.63861825 11.7669398,7.31045173 11.7669398,6.90589017 L11.7669398,5.73306023 C11.7669398,5.32816652 12.0951063,5 12.5,5 Z" id="Combined-Shape"></path>
            </g>
        </g>
    </g>
</svg>