<?xml version="1.0" encoding="UTF-8"?>
<svg width="15px" height="15px" viewBox="0 0 15 15" version="1.1" xmlns="http://www.w3.org/2000/svg" xmlns:xlink="http://www.w3.org/1999/xlink">
    <title>BAB66D8A-1EE3-4AF4-A428-ACA3E77A7BF5@1.5x</title>
    <g id="Page-1" stroke="none" stroke-width="1" fill="none" fill-rule="evenodd">
        <g id="Style-Guide" transform="translate(-1469.000000, -460.000000)" fill="#935287" fill-rule="nonzero">
            <g id="night-mode-copy" transform="translate(1469.043356, 460.000000)">
                <path d="M14.35086,10.9530932 C12.7197669,14.0243588 9.21639238,15.6018486 5.83561249,14.7873152 C2.4548326,13.9727819 0.0542967752,10.9728595 0.000907496027,7.49575053 C-0.0524817832,4.01864156 2.25481948,0.946432646 5.60899803,0.0284873843 C5.85202939,-0.0532949797 6.11918144,0.04563016 6.25033751,0.265972353 C6.38149358,0.486314546 6.34108194,0.768313312 6.15332318,0.942953638 C4.43002368,2.64774305 3.9046458,5.22338739 4.82256746,7.466931 C5.74048913,9.71047461 7.92057962,11.1792057 10.3446268,11.187153 C11.4914462,11.1917638 12.6148449,10.8626874 13.5779182,10.2400272 C13.7861528,10.1082838 14.0569182,10.1328596 14.2380301,10.2999417 C14.419142,10.4670238 14.4654227,10.7349342 14.35086,10.9530932 L14.35086,10.9530932 Z" id="Path"></path>
            </g>
        </g>
    </g>
</svg>