<?xml version="1.0" encoding="UTF-8"?>
<svg width="15px" height="15px" viewBox="0 0 15 15" version="1.1" xmlns="http://www.w3.org/2000/svg" xmlns:xlink="http://www.w3.org/1999/xlink">
    <title>6ED97FE9-99ED-4FFA-8B2C-C85901BC30B9@1.5x</title>
    <g id="Page-1" stroke="none" stroke-width="1" fill="none" fill-rule="evenodd">
        <g id="Style-Guide" transform="translate(-1434.000000, -460.000000)" fill="#606060" fill-rule="nonzero">
            <g id="sun" transform="translate(1434.000000, 460.000000)">
                <path d="M7.5,3.7430248 C5.42836581,3.7430248 3.7430248,5.42869796 3.7430248,7.50033215 C3.7430248,9.57196634 5.42836581,11.2576395 7.5,11.2576395 C9.57130204,11.2576395 11.2569752,9.57229849 11.2569752,7.50033215 C11.2569752,5.42836581 9.57130204,3.7430248 7.5,3.7430248 Z" id="Path"></path>
                <g id="Group">
                    <path d="M7.5,2.63861825 C7.09510629,2.63861825 6.76693977,2.31045173 6.76693977,1.90589017 L6.76693977,0.73306023 C6.76693977,0.328166519 7.09510629,0 7.5,0 C7.90489371,0 8.23306023,0.328166519 8.23306023,0.73306023 L8.23306023,1.90589017 C8.23306023,2.31045173 7.90456156,2.63861825 7.5,2.63861825 Z" id="Path"></path>
                    <path d="M7.5,12.3610496 C7.09510629,12.3610496 6.76693977,12.6892161 6.76693977,13.0941098 L6.76693977,14.2666076 C6.76693977,14.6718335 7.09510629,15 7.5,15 C7.90489371,15 8.23306023,14.6718335 8.23306023,14.2666076 L8.23306023,13.0941098 C8.23306023,12.6892161 7.90456156,12.3610496 7.5,12.3610496 Z" id="Path"></path>
                    <path d="M10.9371125,4.06255536 C10.6511293,3.77624004 10.6511293,3.31222321 10.9371125,3.02590788 L11.7664969,2.19652347 C12.0524801,1.9105403 12.5168291,1.9105403 12.8031444,2.19652347 C13.0894597,2.4828388 13.0894597,2.94718778 12.8031444,3.23317095 L11.97376,4.06255536 C11.6877768,4.34887068 11.22376,4.34887068 10.9371125,4.06255536 Z" id="Path"></path>
                    <path d="M4.06255536,10.9377768 C3.77624004,10.6511293 3.31222321,10.6511293 3.02590788,10.9377768 L2.19652347,11.7668291 C1.9105403,12.0528122 1.91020815,12.5174934 2.19652347,12.8034765 C2.4828388,13.0894597 2.94718778,13.0894597 3.23317095,12.8034765 L4.06255536,11.97376 C4.34887068,11.6877768 4.34887068,11.2234278 4.06255536,10.9377768 Z" id="Path"></path>
                    <path d="M12.3610496,7.5 C12.3610496,7.09510629 12.6892161,6.76693977 13.0941098,6.76693977 L14.2669398,6.76693977 C14.6718335,6.76693977 15,7.09510629 15,7.5 C15,7.90489371 14.6718335,8.23272808 14.2669398,8.23272808 L13.0941098,8.23272808 C12.6892161,8.23272808 12.3610496,7.90489371 12.3610496,7.5 Z" id="Path"></path>
                    <path d="M2.63861825,7.5 C2.63861825,7.09510629 2.31045173,6.76693977 1.90555802,6.76693977 L0.73306023,6.76693977 C0.328166519,6.76693977 0,7.09510629 0,7.5 C0,7.90489371 0.328166519,8.23272808 0.73306023,8.23272808 L1.90589017,8.23272808 C2.31045173,8.23272808 2.63861825,7.90489371 2.63861825,7.5 Z" id="Path"></path>
                    <path d="M10.9371125,10.9377768 C11.2234278,10.6517936 11.6877768,10.6517936 11.97376,10.9377768 L12.8031444,11.7671612 C13.0894597,12.0528122 13.0894597,12.5174934 12.8031444,12.8034765 C12.5168291,13.0894597 12.0528122,13.0894597 11.7664969,12.8034765 L10.9371125,11.9740921 C10.6507972,11.6877768 10.6507972,11.22376 10.9371125,10.9377768 Z" id="Path"></path>
                    <path d="M4.06255536,4.06255536 C4.34887068,3.77624004 4.34887068,3.31222321 4.06255536,3.02590788 L3.23317095,2.19685562 C2.94685562,1.9105403 2.4828388,1.9105403 2.19652347,2.19685562 C1.91020815,2.4828388 1.91020815,2.94718778 2.19652347,3.23317095 L3.02590788,4.06255536 C3.31222321,4.34920283 3.77624004,4.34920283 4.06255536,4.06255536 Z" id="Path"></path>
                </g>
            </g>
        </g>
    </g>
</svg>