<?xml version="1.0" encoding="UTF-8"?>
<svg width="36px" height="36px" viewBox="0 0 36 36" version="1.1" xmlns="http://www.w3.org/2000/svg" xmlns:xlink="http://www.w3.org/1999/xlink">
    <title>BBD079D7-B264-41DB-9574-1D1612C9B716@1.5x</title>
    <g id="Page-1" stroke="none" stroke-width="1" fill="none" fill-rule="evenodd">
        <g id="Style-Guide" transform="translate(-1116.000000, -362.000000)" stroke="#0F2558">
            <g id="Icon/more-Copy-4" transform="translate(1116.000000, 362.000000)">
                <path d="M18,24.5 C18.6903559,24.5 19.3153559,24.779822 19.767767,25.232233 C20.220178,25.6846441 20.5,26.3096441 20.5,27 C20.5,27.6903559 20.220178,28.3153559 19.767767,28.767767 C19.3153559,29.220178 18.6903559,29.5 18,29.5 C17.3096441,29.5 16.6846441,29.220178 16.232233,28.767767 C15.779822,28.3153559 15.5,27.6903559 15.5,27 C15.5,26.3096441 15.779822,25.6846441 16.232233,25.232233 C16.6846441,24.779822 17.3096441,24.5 18,24.5 Z M18,15.5 C18.6903559,15.5 19.3153559,15.779822 19.767767,16.232233 C20.220178,16.6846441 20.5,17.3096441 20.5,18 C20.5,18.6903559 20.220178,19.3153559 19.767767,19.767767 C19.3153559,20.220178 18.6903559,20.5 18,20.5 C17.3096441,20.5 16.6846441,20.220178 16.232233,19.767767 C15.779822,19.3153559 15.5,18.6903559 15.5,18 C15.5,17.3096441 15.779822,16.6846441 16.232233,16.232233 C16.6846441,15.779822 17.3096441,15.5 18,15.5 Z M18,6.5 C18.6903559,6.5 19.3153559,6.77982203 19.767767,7.23223305 C20.220178,7.68464406 20.5,8.30964406 20.5,9 C20.5,9.69035594 20.220178,10.3153559 19.767767,10.767767 C19.3153559,11.220178 18.6903559,11.5 18,11.5 C17.3096441,11.5 16.6846441,11.220178 16.232233,10.767767 C15.779822,10.3153559 15.5,9.69035594 15.5,9 C15.5,8.30964406 15.779822,7.68464406 16.232233,7.23223305 C16.6846441,6.77982203 17.3096441,6.5 18,6.5 Z" id="Combined-Shape"></path>
            </g>
        </g>
    </g>
</svg>