<?xml version="1.0" encoding="UTF-8"?>
<svg width="36px" height="36px" viewBox="0 0 36 36" version="1.1" xmlns="http://www.w3.org/2000/svg" xmlns:xlink="http://www.w3.org/1999/xlink">
    <title>2EB6873C-F983-4B77-91D1-44F99BE4E416@1.5x</title>
    <g id="Page-1" stroke="none" stroke-width="1" fill="none" fill-rule="evenodd">
        <g id="Style-Guide" transform="translate(-33.000000, -428.000000)" fill="#0F2558" fill-rule="nonzero">
            <g id="Icons/Story/Meshek" transform="translate(33.000000, 428.000000)">
                <path d="M5.37473684,8.39576141 C6.01654986,8.39576141 6.53684211,8.91605366 6.53684211,9.55786668 L6.53684211,9.55786668 L6.53684211,28.1515509 L30.9410526,28.1515509 C31.5828656,28.1515509 32.1031579,28.6718431 32.1031579,29.3136562 C32.1031579,29.9554692 31.5828656,30.4757614 30.9410526,30.4757614 L30.9410526,30.4757614 L5.37473684,30.4757614 C4.73292383,30.4757614 4.21263158,29.9554692 4.21263158,29.3136562 L4.21263158,29.3136562 L4.21263158,9.55786668 C4.21263158,8.91605366 4.73292383,8.39576141 5.37473684,8.39576141 Z M13.2770526,16.7726035 C13.886775,16.7726035 14.3810526,17.2928958 14.3810526,17.9347088 L14.3810526,17.9347088 L14.3810526,26.0694456 L8.86105263,26.0694456 L8.86105263,17.9347088 C8.86105263,17.2928958 9.35533027,16.7726035 9.96505263,16.7726035 L9.96505263,16.7726035 Z M21.6442105,12.1241825 C22.2860235,12.1241825 22.8063158,12.6444747 22.8063158,13.2862877 L22.8063158,13.2862877 L22.8063158,26.0694456 L16.9957895,26.0694456 L16.9957895,13.2862877 C16.9957895,12.6444747 17.5160817,12.1241825 18.1578947,12.1241825 L18.1578947,12.1241825 Z M29.7789474,7.47576141 C30.4207604,7.47576141 30.9410526,7.99605366 30.9410526,8.63786668 L30.9410526,8.63786668 L30.9410526,26.0694456 L25.1305263,26.0694456 L25.1305263,8.63786668 C25.1305263,7.99605366 25.6508186,7.47576141 26.2926316,7.47576141 L26.2926316,7.47576141 Z" id="Combined-Shape"></path>
            </g>
        </g>
    </g>
</svg>