<?xml version="1.0" encoding="UTF-8"?>
<svg width="36px" height="36px" viewBox="0 0 36 36" version="1.1" xmlns="http://www.w3.org/2000/svg" xmlns:xlink="http://www.w3.org/1999/xlink">
    <title>C1148DA1-BA06-4B9D-B9D0-68F27B515FC3@1.5x</title>
    <g id="Page-1" stroke="none" stroke-width="1" fill="none" fill-rule="evenodd">
        <g id="Style-Guide" transform="translate(-363.000000, -428.000000)" fill="#15A0EB" fill-rule="nonzero">
            <g id="Icons/Story/Meshek-Copy-7" transform="translate(363.000000, 428.000000)">
                <path d="M6.46664274,5 L6.34315357,5.00665057 C5.7753228,5.06818469 5.33334701,5.54916353 5.33334701,6.13335042 L5.33315891,26.4992043 L4.13335042,26.4999521 C3.50738932,26.5000451 3,27.0074057 3,27.6333026 L3.0066505,27.7567915 C3.068184,28.3246248 3.54915838,28.766653 4.13335042,28.766653 L5.33315891,28.7662043 L5.33334701,29.9666496 C5.33334701,30.5925696 5.84077738,31.1 6.46669743,31.1 L6.59018656,31.0933494 C7.15801765,31.0318154 7.6,30.5508371 7.6,29.9666496 L7.59915891,28.7662043 L30.9665949,28.766653 C31.5925149,28.766653 32.0999453,28.2592226 32.0999453,27.6333026 L32.0932948,27.5098134 C32.0317607,26.9419824 31.5507824,26.5 30.9665949,26.5 L7.59915891,26.4992043 L7.6,6.13335042 C7.6,5.50742969 7.0925621,5 6.46664274,5 Z" id="Combined-Shape"></path>
                <path d="M31.1807681,5.42653766 C31.4974826,4.97408836 32.121013,4.86405357 32.5734623,5.18076808 C32.9911078,5.47311993 33.1169919,6.02690076 32.8847828,6.46623155 L32.8192319,6.57346234 L25.8192319,16.5734623 C25.42832,17.131908 24.6180632,17.1370715 24.2134225,16.6179649 L24.1425071,16.5144958 L22.021,12.979 L18.8682431,18.4961389 C18.5615486,19.0328544 17.8551092,19.1584371 17.3838263,18.7878624 L17.2928932,18.7071068 L16.082,17.497 L12.7808688,21.624695 C12.4358593,22.055957 11.8065669,22.1258784 11.375305,21.7808688 C10.944043,21.4358593 10.8741216,20.8065669 11.2191312,20.375305 L15.2191312,15.375305 C15.5648618,14.9431417 16.188133,14.8791206 16.6128392,15.209611 L16.7071068,15.2928932 L17.781,16.366 L21.1317569,10.5038611 C21.4886562,9.87928722 22.3540912,9.83356518 22.7825154,10.3767528 L22.8574929,10.4855042 L25.064,14.163 L31.1807681,5.42653766 Z" id="Path-2-Copy-2"></path>
            </g>
        </g>
    </g>
</svg>