<?xml version="1.0" encoding="UTF-8"?>
<svg width="36px" height="36px" viewBox="0 0 36 36" version="1.1" xmlns="http://www.w3.org/2000/svg" xmlns:xlink="http://www.w3.org/1999/xlink">
    <title>B49B5A74-182B-4541-B5D6-12C6D953FDBF@1.5x</title>
    <g id="Page-1" stroke="none" stroke-width="1" fill="none" fill-rule="evenodd">
        <g id="Style-Guide" transform="translate(-165.000000, -428.000000)" fill="#15A0EB">
            <g id="Icons/Story/Meshek" transform="translate(165.000000, 428.000000)">
                <path d="M24.5651833,9 L31.8477749,9 C32.1791457,9 32.4477749,9.26862916 32.4477749,9.60000002 L32.4477749,13.1591345 C32.4477749,13.4905053 32.1791457,13.7591345 31.8477749,13.7591345 L24.5651833,13.7591345 C24.2338124,13.7591345 23.9651833,13.4905053 23.9651833,13.1591345 L23.9651833,9.60000002 C23.9651833,9.26862916 24.2338124,9 24.5651833,9 Z M14.0825917,9 L21.3651832,9 C21.6965541,9 21.9651833,9.26862916 21.9651833,9.60000002 L21.9651833,13.1591345 C21.9651833,13.4905053 21.6965541,13.7591345 21.3651832,13.7591345 L14.0825917,13.7591345 C13.7512208,13.7591345 13.4825916,13.4905053 13.4825916,13.1591345 L13.4825916,9.60000002 C13.4825916,9.26862916 13.7512208,9 14.0825917,9 Z M3.60000002,9 L10.8825916,9 C11.2139625,9 11.4825916,9.26862916 11.4825916,9.60000002 L11.4825916,13.1591345 C11.4825916,13.4905053 11.2139625,13.7591345 10.8825916,13.7591345 L3.60000002,13.7591345 C3.26862916,13.7591345 3,13.4905053 3,13.1591345 L3,9.60000002 C3,9.26862916 3.26862916,9 3.60000002,9 Z M24.5651833,15.7591345 L31.8477749,15.7591345 C32.1791457,15.7591345 32.4477749,16.0277636 32.4477749,16.3591345 L32.4477749,19.9182689 C32.4477749,20.2496398 32.1791457,20.518269 31.8477749,20.518269 L24.5651833,20.518269 C24.2338124,20.518269 23.9651833,20.2496398 23.9651833,19.9182689 L23.9651833,16.3591345 C23.9651833,16.0277636 24.2338124,15.7591345 24.5651833,15.7591345 Z M14.0825917,15.7591345 L21.3651832,15.7591345 C21.6965541,15.7591345 21.9651833,16.0277636 21.9651833,16.3591345 L21.9651833,19.9182689 C21.9651833,20.2496398 21.6965541,20.518269 21.3651832,20.518269 L14.0825917,20.518269 C13.7512208,20.518269 13.4825916,20.2496398 13.4825916,19.9182689 L13.4825916,16.3591345 C13.4825916,16.0277636 13.7512208,15.7591345 14.0825917,15.7591345 Z M3.60000002,15.7591345 L10.8825916,15.7591345 C11.2139625,15.7591345 11.4825916,16.0277636 11.4825916,16.3591345 L11.4825916,19.9182689 C11.4825916,20.2496398 11.2139625,20.518269 10.8825916,20.518269 L3.60000002,20.518269 C3.26862916,20.518269 3,20.2496398 3,19.9182689 L3,16.3591345 C3,16.0277636 3.26862916,15.7591345 3.60000002,15.7591345 Z M24.5651833,22.518269 L31.8477749,22.518269 C32.1791457,22.518269 32.4477749,22.7868981 32.4477749,23.118269 L32.4477749,26.6774034 C32.4477749,27.0087743 32.1791457,27.2774035 31.8477749,27.2774035 L24.5651833,27.2774035 C24.2338124,27.2774035 23.9651833,27.0087743 23.9651833,26.6774034 L23.9651833,23.118269 C23.9651833,22.7868981 24.2338124,22.518269 24.5651833,22.518269 Z M14.0825917,22.518269 L21.3651832,22.518269 C21.6965541,22.518269 21.9651833,22.7868981 21.9651833,23.118269 L21.9651833,26.6774034 C21.9651833,27.0087743 21.6965541,27.2774035 21.3651832,27.2774035 L14.0825917,27.2774035 C13.7512208,27.2774035 13.4825916,27.0087743 13.4825916,26.6774034 L13.4825916,23.118269 C13.4825916,22.7868981 13.7512208,22.518269 14.0825917,22.518269 Z M3.60000002,22.518269 L10.8825916,22.518269 C11.2139625,22.518269 11.4825916,22.7868981 11.4825916,23.118269 L11.4825916,26.6774034 C11.4825916,27.0087743 11.2139625,27.2774035 10.8825916,27.2774035 L3.60000002,27.2774035 C3.26862916,27.2774035 3,27.0087743 3,26.6774034 L3,23.118269 C3,22.7868981 3.26862916,22.518269 3.60000002,22.518269 Z" id="Combined-Shape"></path>
            </g>
        </g>
    </g>
</svg>