<?xml version="1.0" encoding="UTF-8"?>
<svg width="36px" height="36px" viewBox="0 0 36 36" version="1.1" xmlns="http://www.w3.org/2000/svg" xmlns:xlink="http://www.w3.org/1999/xlink">
    <title>EDEC2FC7-2305-4FB3-B02E-B0B10A8A84D3@1.5x</title>
    <g id="Page-1" stroke="none" stroke-width="1" fill="none" fill-rule="evenodd">
        <g id="Style-Guide" transform="translate(-231.000000, -428.000000)" fill="#0F2558" fill-rule="nonzero">
            <g id="Icons/Story/Meshek-Copy-5" transform="translate(231.000000, 428.000000)">
                <path d="M5.53310277,8.48775937 L23.3504172,8.54739988 C24.1974833,8.54739988 24.8840312,9.23394773 24.8840312,10.0810139 C24.8840312,10.92808 24.1974833,11.6146278 23.3504172,11.6146278 L5.53361398,11.5549873 C4.68654786,11.5549873 4,10.8684395 4,10.0213733 C4,9.17430722 4.68603665,8.48775937 5.53310277,8.48775937 Z M5.53310277,16.1736763 L23.3504172,16.2333168 C24.1974833,16.2333168 24.8840312,16.9198646 24.8840312,17.7669307 C24.8840312,18.6139969 24.1974833,19.3005447 23.3504172,19.3005447 L5.53361398,19.2409042 C4.68654786,19.2409042 4,18.5543564 4,17.7072902 C4,16.8602241 4.68603665,16.1736763 5.53310277,16.1736763 Z M5.53310277,23.8595932 L23.3504172,23.9192337 C24.1974833,23.9192337 24.8840312,24.6057815 24.8840312,25.4528476 C24.8840312,26.2999138 24.1974833,26.9864616 23.3504172,26.9864616 L5.53361398,26.9268211 C4.68654786,26.9268211 4,26.2402732 4,25.3932071 C4,24.546141 4.68603665,23.8595932 5.53310277,23.8595932 Z M29.9403564,23.7407431 C28.8028467,23.7407431 27.8807129,24.6628769 27.8807129,25.8003867 C27.8807129,26.9378964 28.8028467,27.8600302 29.9403564,27.8600302 C31.0778662,27.8600302 32,26.9378964 32,25.8003867 C32,24.6628769 31.0778662,23.7407431 29.9403564,23.7407431 Z M29.9403564,15.9403564 C28.8028467,15.9403564 27.8807129,16.8624903 27.8807129,18 C27.8807129,19.1375097 28.8028467,20.0596436 29.9403564,20.0596436 C31.0778662,20.0596436 32,19.1375097 32,18 C32,16.8624903 31.0778662,15.9403564 29.9403564,15.9403564 Z M29.9403564,8.13996976 C28.8028467,8.13996976 27.8807129,9.0621036 27.8807129,10.1996133 C27.8807129,11.3371231 28.8028467,12.2592569 29.9403564,12.2592569 C31.0778662,12.2592569 32,11.3371231 32,10.1996133 C32,9.0621036 31.0778662,8.13996976 29.9403564,8.13996976 Z" id="Combined-Shape"></path>
            </g>
        </g>
    </g>
</svg>