<?xml version="1.0" encoding="UTF-8"?>
<svg width="36px" height="36px" viewBox="0 0 36 36" version="1.1" xmlns="http://www.w3.org/2000/svg" xmlns:xlink="http://www.w3.org/1999/xlink">
    <title>D739590A-4A8E-4480-810A-F61733E8636F@1.5x</title>
    <g id="Page-1" stroke="none" stroke-width="1" fill="none" fill-rule="evenodd">
        <g id="Style-Guide" transform="translate(-99.000000, -428.000000)" fill="#0F2558" fill-rule="nonzero">
            <g id="Icons/Story/Meshek" transform="translate(99.000000, 428.000000)">
                <path d="M17.5,3.477 L17.5,10.329 L17.1938429,10.3612416 C13.3203653,10.7695569 10.3406341,14.0608506 10.3406341,17.9824781 C10.3406341,22.2153053 13.7846947,25.6593659 18.0175219,25.6593659 C19.6823357,25.6593659 21.2682304,25.1262025 22.5739341,24.159098 L22.67,24.084 L27.522,28.936 L27.3167103,29.1134166 C24.7272381,31.2897154 21.4712904,32.5 18.0175219,32.5 C10.0083799,32.5 3.5,25.9916201 3.5,17.9824781 C3.5,10.4167268 9.32394754,4.14173447 16.7902035,3.52391732 L17.1111793,3.50091575 L17.5,3.477 Z M32.4503392,19.4997934 C32.1582865,22.3855526 31.0048994,25.0812769 29.1549472,27.2754514 L28.938,27.524 L24.088,22.674 L24.1997947,22.5321055 C24.8602407,21.6398068 25.3186266,20.603659 25.5354581,19.4999933 L32.4503392,19.4997934 Z M19.5009751,3.54701381 C26.4079712,4.23789422 31.9042207,9.81057327 32.4759937,16.751321 L32.4991084,17.076536 L32.524,17.499 L25.674,17.499 L25.6387007,17.1582489 C25.28927,13.8078254 22.7603461,11.0919662 19.5006224,10.4593649 L19.5009751,3.54701381 Z" id="Combined-Shape"></path>
            </g>
        </g>
    </g>
</svg>