<?xml version="1.0" encoding="UTF-8"?>
<svg width="36px" height="36px" viewBox="0 0 36 36" version="1.1" xmlns="http://www.w3.org/2000/svg" xmlns:xlink="http://www.w3.org/1999/xlink">
    <title>0BF5FA00-29E2-4FEF-B78D-B233F75B6BFD@1.5x</title>
    <g id="Page-1" stroke="none" stroke-width="1" fill="none" fill-rule="evenodd">
        <g id="Style-Guide" transform="translate(-246.000000, -362.000000)" fill="#15A0EB" fill-rule="nonzero">
            <g id="Icons/Story/Meshek-Copy-16" transform="translate(246.000000, 362.000000)">
                <path d="M18,8 C18.7005589,8 19.2762767,8.53450843 19.3415841,9.21795606 L19.3477537,9.34775374 L19.347,16.652 L26.6522463,16.6522463 C27.3965901,16.6522463 28,17.2556562 28,18 C28,18.7005589 27.4654916,19.2762767 26.7820439,19.3415841 L26.6522463,19.3477537 L19.347,19.347 L19.3477537,26.6522463 C19.3477537,27.3965901 18.7443438,28 18,28 C17.2994411,28 16.7237233,27.4654916 16.6584159,26.7820439 L16.6522463,26.6522463 L16.652,19.347 L9.34775374,19.3477537 C8.6034099,19.3477537 8,18.7443438 8,18 C8,17.2994411 8.53450843,16.7237233 9.21795606,16.6584159 L9.34775374,16.6522463 L16.652,16.652 L16.6522463,9.34775374 C16.6522463,8.6034099 17.2556562,8 18,8 Z" id="Combined-Shape-Copy"></path>
            </g>
        </g>
    </g>
</svg>