<?xml version="1.0" encoding="UTF-8"?>
<svg width="36px" height="36px" viewBox="0 0 36 36" version="1.1" xmlns="http://www.w3.org/2000/svg" xmlns:xlink="http://www.w3.org/1999/xlink">
    <title>EFDF5600-2F63-4DF6-9667-CFD9EC48F258@1.5x</title>
    <g id="Page-1" stroke="none" stroke-width="1" fill="none" fill-rule="evenodd">
        <g id="Style-Guide" transform="translate(-297.000000, -428.000000)" fill="#935287">
            <g id="Icons/Story/Meshek-Copy-6" transform="translate(297.000000, 428.000000)">
                <path d="M31,13.517 L31,27 C31,29.209139 29.209139,31 27,31 L23.379,31 L23.379,13.517 L31,13.517 Z M21.586,13.517 L21.586,31 L14.413,31 L14.413,13.517 L21.586,13.517 Z M12.62,13.517 L12.62,31 L9,31 C6.790861,31 5,29.209139 5,27 L5,13.517 L12.62,13.517 Z M27,5 C29.209139,5 31,6.790861 31,9 L31,11.724 L5,11.724 L5,9 C5,6.790861 6.790861,5 9,5 L27,5 Z" id="Combined-Shape"></path>
            </g>
        </g>
    </g>
</svg>